<svg xmlns="http://www.w3.org/2000/svg" version="1.1" width="1378px" height="664px" style="shape-rendering:geometricPrecision; text-rendering:geometricPrecision; image-rendering:optimizeQuality; fill-rule:evenodd; clip-rule:evenodd" xmlns:xlink="http://www.w3.org/1999/xlink">
    <g><path style="opacity:1" fill="#6faee1" d="M 650.5,110.5 C 651.496,110.414 652.329,110.748 653,111.5C 666.813,136.939 675.813,163.939 680,192.5C 693.993,203.806 702.327,218.473 705,236.5C 705.906,247.559 705.573,258.559 704,269.5C 700.343,260.844 695.676,252.844 690,245.5C 686.431,242.384 682.431,240.05 678,238.5C 676.596,238.509 675.43,239.009 674.5,240C 658.14,240.572 641.806,240.572 625.5,240C 620.921,242.702 617.088,246.202 614,250.5C 610.139,256.888 606.806,263.554 604,270.5C 596.534,240.682 603.534,215.015 625,193.5C 626.738,179.882 629.738,166.549 634,153.5C 639.433,139.019 644.933,124.685 650.5,110.5 Z"/></g>
    <g><path style="opacity:1" fill="#6dade0" d="M 637.5,242.5 C 648.505,242.333 659.505,242.5 670.5,243C 669.833,244.667 669.167,246.333 668.5,248C 658.483,248.832 648.483,248.666 638.5,247.5C 637.691,245.929 637.357,244.262 637.5,242.5 Z"/></g>
    <g><path style="opacity:1" fill="#6faee1" d="M 681.5,244.5 C 682.922,244.709 684.255,245.209 685.5,246C 688,249.167 690.5,252.333 693,255.5C 692.824,292.873 691.491,330.206 689,367.5C 686.31,326.509 683.81,285.509 681.5,244.5 Z"/></g>
    <g><path style="opacity:1" fill="#6faee1" d="M 624.5,244.5 C 625.165,247.984 625.499,251.651 625.5,255.5C 624.048,294.835 622.548,334.168 621,373.5C 618.251,334.187 616.251,294.853 615,255.5C 617.722,251.348 620.888,247.681 624.5,244.5 Z"/></g>
    <g><path style="opacity:1" fill="#6eade0" d="M 647.5,252.5 C 651.5,252.5 655.5,252.5 659.5,252.5C 658.547,290.853 657.047,329.187 655,367.5C 652.5,329.157 650,290.823 647.5,252.5 Z"/></g>
    <g><path style="opacity:1" fill="#6cace0" d="M 596.5,332.5 C 605.645,331.624 609.478,335.624 608,344.5C 601.14,350.939 594.473,357.605 588,364.5C 569.474,390.732 566.474,418.732 579,448.5C 599.717,485.27 630.884,499.437 672.5,491C 713.336,476.796 732.836,447.963 731,404.5C 728.125,382.543 718.125,364.543 701,350.5C 697.833,339 702,334.833 713.5,338C 749.459,370.87 758.292,410.037 740,455.5C 716.436,498.328 680.27,516.494 631.5,510C 586.127,497.626 560.293,468.126 554,421.5C 552.116,383.942 566.283,354.275 596.5,332.5 Z"/></g>
    <g><path style="opacity:1" fill="#ffff" d="M 313.5,351.5 C 318.194,350.7 321.694,352.367 324,356.5C 324.667,399.5 324.667,442.5 324,485.5C 318.116,492.486 312.782,492.153 308,484.5C 307.333,442.167 307.333,399.833 308,357.5C 309.36,354.977 311.193,352.977 313.5,351.5 Z"/></g>
    <g><path style="opacity:1" fill="#ffffff" d="M 760.5,352.5 C 765.635,351.426 769.468,353.093 772,357.5C 781.401,390.535 790.901,423.535 800.5,456.5C 809.516,424.275 818.349,391.941 827,359.5C 828.384,352.454 832.051,350.788 838,354.5C 847.637,388.38 856.971,422.38 866,456.5C 875.802,422.763 885.802,389.096 896,355.5C 901.033,351.221 905.7,351.554 910,356.5C 910.667,359.5 910.667,362.5 910,365.5C 898.178,405.121 886.511,444.788 875,484.5C 872.103,489.155 867.937,490.655 862.5,489C 861.069,488.535 859.903,487.701 859,486.5C 850.649,455.429 842.149,424.429 833.5,393.5C 824.698,424.035 816.198,454.702 808,485.5C 802.667,490.833 797.333,490.833 792,485.5C 780,444.833 768,404.167 756,363.5C 754.776,358.626 756.276,354.959 760.5,352.5 Z"/></g>
    <g><path style="opacity:1" fill="#ffffff" d="M 381.5,482.5 C 381.5,444.5 381.5,406.5 381.5,368.5C 370.167,368.5 358.833,368.5 347.5,368.5C 341.919,366.974 339.753,363.307 341,357.5C 342.167,356.333 343.333,355.167 344.5,354C 359.602,352.857 374.769,352.357 390,352.5C 404.167,352.667 418.333,352.833 432.5,353C 439.357,354.939 441.19,359.106 438,365.5C 437.097,366.701 435.931,367.535 434.5,368C 422.505,368.5 410.505,368.667 398.5,368.5C 398.667,407.168 398.5,445.835 398,484.5C 393.001,491.841 387.667,492.174 382,485.5C 381.517,484.552 381.351,483.552 381.5,482.5 Z"/></g>
    <g><path style="opacity:1" fill="#ffffff" d="M 462.5,352.5 C 487.502,352.333 512.502,352.5 537.5,353C 543.158,354.829 544.992,358.663 543,364.5C 541.681,366.487 539.848,367.654 537.5,368C 516.836,368.5 496.169,368.667 475.5,368.5C 475.5,382.833 475.5,397.167 475.5,411.5C 488.171,411.333 500.838,411.5 513.5,412C 519.616,414.321 521.116,418.488 518,424.5C 517.25,425.126 516.416,425.626 515.5,426C 502.171,426.5 488.837,426.667 475.5,426.5C 475.5,442.167 475.5,457.833 475.5,473.5C 496.169,473.333 516.836,473.5 537.5,474C 543.158,475.829 544.992,479.663 543,485.5C 541.681,487.487 539.848,488.654 537.5,489C 512.5,489.667 487.5,489.667 462.5,489C 461.5,488.167 460.5,487.333 459.5,486.5C 458.339,443.208 458.172,399.875 459,356.5C 460.102,355.051 461.269,353.718 462.5,352.5 Z"/></g>
    <g><path style="opacity:1" fill="#ffffff" d="M 941.5,352.5 C 966.836,352.333 992.169,352.5 1017.5,353C 1024.17,356.368 1025.17,361.035 1020.5,367C 1019.5,367.333 1018.5,367.667 1017.5,368C 996.836,368.5 976.169,368.667 955.5,368.5C 955.5,382.833 955.5,397.167 955.5,411.5C 967.838,411.333 980.171,411.5 992.5,412C 1000.47,415.176 1001.47,419.843 995.5,426C 982.171,426.5 968.837,426.667 955.5,426.5C 955.5,442.167 955.5,457.833 955.5,473.5C 976.169,473.333 996.836,473.5 1017.5,474C 1023.45,476.433 1024.95,480.6 1022,486.5C 1020.75,487.211 1019.58,488.044 1018.5,489C 992.833,489.667 967.167,489.667 941.5,489C 940.667,488.167 939.833,487.333 939,486.5C 937.35,443.226 937.016,399.892 938,356.5C 939.376,355.295 940.542,353.962 941.5,352.5 Z"/></g>
    <g><path style="opacity:1" fill="#ffffff" d="M 1052.5,352.5 C 1066.84,352.333 1081.17,352.5 1095.5,353C 1118.26,356.431 1128.09,369.598 1125,392.5C 1121.96,404.542 1114.46,412.375 1102.5,416C 1131.36,427.221 1138.86,446.721 1125,474.5C 1116.73,483.219 1106.56,488.053 1094.5,489C 1080.5,489.667 1066.5,489.667 1052.5,489C 1051.33,487.833 1050.17,486.667 1049,485.5C 1048.33,442.5 1048.33,399.5 1049,356.5C 1050.38,355.295 1051.54,353.962 1052.5,352.5 Z"/></g>
    <g><path style="opacity:1" fill="#6cace0" d="M 614.5,375.5 C 621.82,374.318 626.153,377.318 627.5,384.5C 625.96,388.213 623.793,391.547 621,394.5C 611.455,413.816 614.955,430.316 631.5,444C 649.785,453.276 665.952,450.443 680,435.5C 686.612,425.673 688.612,415.007 686,403.5C 683.573,398.31 680.906,393.31 678,388.5C 677.17,382.149 680.003,378.482 686.5,377.5C 689.872,378.269 692.705,379.935 695,382.5C 706.567,401.178 707.567,420.512 698,440.5C 679.367,466.597 655.201,473.43 625.5,461C 598.182,441.904 591.349,417.07 605,386.5C 608.061,382.616 611.227,378.949 614.5,375.5 Z"/></g>
</svg>
